<svg width="1025" height="243" viewBox="0 0 1025 243" fill="none" xmlns="http://www.w3.org/2000/svg">
<g filter="url(#filter0_ii_6_13)">
<path d="M125.392 148.088C122.896 150.2 119.632 151.928 115.6 153.272C111.76 154.424 107.248 155 102.064 155C95.152 155 89.392 154.136 84.784 152.408C80.368 150.68 77.488 147.704 76.144 143.48C70.768 126.584 66.352 112.952 62.896 102.584C59.44 92.024 56.752 82.808 54.832 74.936H53.392C52.816 86.264 52.336 96.632 51.952 106.04C51.76 115.256 51.568 124.28 51.376 133.112C51.376 141.944 51.184 150.872 50.8 159.896C50.608 168.92 50.224 178.904 49.648 189.848C47.152 190.808 43.888 191.576 39.856 192.152C35.824 192.92 31.792 193.304 27.76 193.304C19.312 193.304 12.688 191.96 7.888 189.272C3.28 186.584 0.976 181.688 0.976 174.584L9.328 27.704C10.864 25.208 14.224 22.52 19.408 19.64C24.592 16.76 31.888 15.32 41.296 15.32C51.472 15.32 59.44 16.952 65.2 20.216C70.96 23.288 75.184 28.376 77.872 35.48C79.6 40.088 81.424 45.368 83.344 51.32C85.456 57.272 87.472 63.416 89.392 69.752C91.504 76.088 93.52 82.424 95.44 88.76C97.36 94.904 99.088 100.472 100.624 105.464H102.064C106.672 89.336 111.28 73.784 115.888 58.808C120.496 43.64 124.72 30.968 128.56 20.792C131.44 19.256 135.088 18.008 139.504 17.048C144.112 15.896 149.2 15.32 154.768 15.32C164.176 15.32 171.856 16.76 177.808 19.64C183.76 22.328 187.216 26.264 188.176 31.448C188.944 35.288 189.712 41.24 190.48 49.304C191.44 57.176 192.4 66.104 193.36 76.088C194.32 86.072 195.28 96.632 196.24 107.768C197.2 118.904 198.064 129.656 198.832 140.024C199.792 150.2 200.56 159.608 201.136 168.248C201.712 176.696 202.096 183.224 202.288 187.832C199.024 189.752 195.568 191.096 191.92 191.864C188.464 192.824 183.952 193.304 178.384 193.304C171.088 193.304 164.944 192.056 159.952 189.56C154.96 187.064 152.272 182.168 151.888 174.872C150.736 153.944 149.968 135.128 149.584 118.424C149.392 101.72 149.008 87.704 148.432 76.376H146.992C145.072 83.864 142.288 93.272 138.64 104.6C134.992 115.928 130.576 130.424 125.392 148.088ZM290.38 159.896C293.644 159.896 297.196 159.608 301.036 159.032C305.068 158.264 308.044 157.304 309.964 156.152V133.112L289.228 134.84C283.852 135.224 279.436 136.376 275.98 138.296C272.524 140.216 270.796 143.096 270.796 146.936C270.796 150.776 272.236 153.944 275.116 156.44C278.188 158.744 283.276 159.896 290.38 159.896ZM288.076 46.712C298.444 46.712 307.852 47.768 316.3 49.88C324.94 51.992 332.236 55.256 338.188 59.672C344.332 63.896 349.036 69.368 352.3 76.088C355.564 82.616 357.196 90.392 357.196 99.416V163.928C357.196 168.92 355.756 173.048 352.876 176.312C350.188 179.384 346.924 182.072 343.084 184.376C330.604 191.864 313.036 195.608 290.38 195.608C280.204 195.608 270.988 194.648 262.732 192.728C254.668 190.808 247.66 187.928 241.708 184.088C235.948 180.248 231.436 175.352 228.172 169.4C225.1 163.448 223.564 156.536 223.564 148.664C223.564 135.416 227.5 125.24 235.372 118.136C243.244 111.032 255.436 106.616 271.948 104.888L309.676 100.856V98.84C309.676 93.272 307.18 89.336 302.188 87.032C297.388 84.536 290.38 83.288 281.164 83.288C273.868 83.288 266.764 84.056 259.852 85.592C252.94 87.128 246.7 89.048 241.132 91.352C238.636 89.624 236.524 87.032 234.796 83.576C233.068 79.928 232.204 76.184 232.204 72.344C232.204 67.352 233.356 63.416 235.66 60.536C238.156 57.464 241.9 54.872 246.892 52.76C252.46 50.648 258.988 49.112 266.476 48.152C274.156 47.192 281.356 46.712 288.076 46.712ZM505.212 149.24C505.212 163.832 499.74 175.256 488.796 183.512C477.852 191.768 461.724 195.896 440.412 195.896C432.348 195.896 424.86 195.32 417.948 194.168C411.036 193.016 405.084 191.288 400.092 188.984C395.292 186.488 391.452 183.416 388.572 179.768C385.884 176.12 384.54 171.8 384.54 166.808C384.54 162.2 385.5 158.36 387.42 155.288C389.34 152.024 391.644 149.336 394.332 147.224C399.9 150.296 406.236 153.08 413.34 155.576C420.636 157.88 428.988 159.032 438.396 159.032C444.348 159.032 448.86 158.168 451.932 156.44C455.196 154.712 456.828 152.408 456.828 149.528C456.828 146.84 455.676 144.728 453.372 143.192C451.068 141.656 447.228 140.408 441.852 139.448L433.212 137.72C416.508 134.456 404.028 129.368 395.772 122.456C387.708 115.352 383.676 105.272 383.676 92.216C383.676 85.112 385.212 78.68 388.284 72.92C391.356 67.16 395.676 62.36 401.244 58.52C406.812 54.68 413.436 51.704 421.116 49.592C428.988 47.48 437.628 46.424 447.036 46.424C454.14 46.424 460.764 47 466.908 48.152C473.244 49.112 478.716 50.648 483.324 52.76C487.932 54.872 491.58 57.656 494.268 61.112C496.956 64.376 498.3 68.312 498.3 72.92C498.3 77.336 497.436 81.176 495.708 84.44C494.172 87.512 492.156 90.104 489.66 92.216C488.124 91.256 485.82 90.296 482.748 89.336C479.676 88.184 476.316 87.224 472.668 86.456C469.02 85.496 465.276 84.728 461.436 84.152C457.788 83.576 454.428 83.288 451.356 83.288C445.02 83.288 440.124 84.056 436.668 85.592C433.212 86.936 431.484 89.144 431.484 92.216C431.484 94.328 432.444 96.056 434.364 97.4C436.284 98.744 439.932 99.992 445.308 101.144L454.236 103.16C472.668 107.384 485.724 113.24 493.404 120.728C501.276 128.024 505.212 137.528 505.212 149.24ZM665.682 165.656C664.722 174.68 662.034 181.592 657.618 186.392C653.394 191.192 647.154 193.592 638.898 193.592C632.754 193.592 627.282 192.152 622.482 189.272C617.682 186.2 612.498 181.112 606.93 174.008L578.418 138.296V190.712C576.306 191.096 573.138 191.576 568.914 192.152C564.882 192.92 560.754 193.304 556.53 193.304C552.306 193.304 548.466 193.016 545.01 192.44C541.746 191.864 538.962 190.712 536.658 188.984C534.354 187.256 532.53 184.952 531.186 182.072C530.034 179 529.458 175.064 529.458 170.264V3.51199C531.57 2.93599 534.642 2.35999 538.674 1.784C542.898 1.016 547.122 0.631996 551.346 0.631996C555.57 0.631996 559.314 0.919992 562.578 1.49599C566.034 2.07199 568.914 3.22399 571.218 4.95199C573.522 6.67999 575.25 9.07999 576.402 12.152C577.746 15.032 578.418 18.872 578.418 23.672V99.704L627.954 49.016C637.938 49.016 645.906 51.224 651.858 55.64C658.002 60.056 661.074 65.624 661.074 72.344C661.074 75.224 660.594 77.912 659.634 80.408C658.674 82.712 657.138 85.112 655.026 87.608C653.106 90.104 650.514 92.792 647.25 95.672C644.178 98.36 640.53 101.528 636.306 105.176L619.602 119.576L665.682 165.656Z" fill="#0CB9EA"/>
<path d="M847.032 126.488C847.032 136.856 845.208 146.36 841.56 155C838.104 163.448 833.016 170.744 826.296 176.888C819.576 182.84 811.416 187.448 801.816 190.712C792.216 193.976 781.368 195.608 769.272 195.608C757.176 195.608 746.328 193.976 736.728 190.712C727.128 187.448 718.968 182.84 712.248 176.888C705.528 170.744 700.344 163.448 696.696 155C693.24 146.36 691.512 136.856 691.512 126.488V16.472C693.624 16.088 696.984 15.608 701.592 15.032C706.2 14.264 710.616 13.88 714.84 13.88C719.256 13.88 723.096 14.264 726.36 15.032C729.816 15.608 732.696 16.76 735 18.488C737.304 20.216 739.032 22.616 740.184 25.688C741.336 28.76 741.912 32.792 741.912 37.784V125.624C741.912 134.84 744.408 142.04 749.4 147.224C754.584 152.408 761.208 155 769.272 155C777.528 155 784.152 152.408 789.144 147.224C794.136 142.04 796.632 134.84 796.632 125.624V16.472C798.744 16.088 802.104 15.608 806.712 15.032C811.32 14.264 815.736 13.88 819.96 13.88C824.376 13.88 828.216 14.264 831.48 15.032C834.936 15.608 837.816 16.76 840.12 18.488C842.424 20.216 844.152 22.616 845.304 25.688C846.456 28.76 847.032 32.792 847.032 37.784V126.488ZM944.106 46.712C955.626 46.712 966.282 48.248 976.074 51.32C986.058 54.2 994.602 58.712 1001.71 64.856C1008.81 71 1014.38 78.776 1018.41 88.184C1022.44 97.4 1024.46 108.44 1024.46 121.304C1024.46 133.592 1022.73 144.344 1019.27 153.56C1015.82 162.776 1010.92 170.552 1004.59 176.888C998.25 183.032 990.57 187.64 981.546 190.712C972.714 193.784 962.826 195.32 951.882 195.32C943.626 195.32 935.946 194.072 928.842 191.576V239.384C926.922 239.96 923.85 240.536 919.626 241.112C915.402 241.88 911.082 242.264 906.666 242.264C902.442 242.264 898.602 241.976 895.146 241.4C891.882 240.824 889.098 239.672 886.794 237.944C884.49 236.216 882.762 233.816 881.61 230.744C880.458 227.864 879.882 224.024 879.882 219.224V80.984C879.882 75.8 880.938 71.576 883.05 68.312C885.354 65.048 888.426 62.072 892.266 59.384C898.218 55.544 905.61 52.472 914.442 50.168C923.274 47.864 933.162 46.712 944.106 46.712ZM944.682 156.728C964.458 156.728 974.346 144.92 974.346 121.304C974.346 109.016 971.85 99.896 966.858 93.944C962.058 87.992 955.05 85.016 945.834 85.016C942.186 85.016 938.922 85.496 936.042 86.456C933.162 87.224 930.666 88.184 928.554 89.336V152.696C930.858 153.848 933.354 154.808 936.042 155.576C938.73 156.344 941.61 156.728 944.682 156.728Z" fill="#2ABA84"/>
</g>
<defs>
<filter id="filter0_ii_6_13" x="0.975998" y="0.631996" width="1023.48" height="245.632" filterUnits="userSpaceOnUse" color-interpolation-filters="sRGB">
<feFlood flood-opacity="0" result="BackgroundImageFix"/>
<feBlend mode="normal" in="SourceGraphic" in2="BackgroundImageFix" result="shape"/>
<feColorMatrix in="SourceAlpha" type="matrix" values="0 0 0 0 0 0 0 0 0 0 0 0 0 0 0 0 0 0 127 0" result="hardAlpha"/>
<feOffset dy="4"/>
<feGaussianBlur stdDeviation="2"/>
<feComposite in2="hardAlpha" operator="arithmetic" k2="-1" k3="1"/>
<feColorMatrix type="matrix" values="0 0 0 0 1 0 0 0 0 1 0 0 0 0 1 0 0 0 0.25 0"/>
<feBlend mode="normal" in2="shape" result="effect1_innerShadow_6_13"/>
<feColorMatrix in="SourceAlpha" type="matrix" values="0 0 0 0 0 0 0 0 0 0 0 0 0 0 0 0 0 0 127 0" result="hardAlpha"/>
<feOffset dy="4"/>
<feGaussianBlur stdDeviation="2"/>
<feComposite in2="hardAlpha" operator="arithmetic" k2="-1" k3="1"/>
<feColorMatrix type="matrix" values="0 0 0 0 1 0 0 0 0 0.9875 0 0 0 0 0.9875 0 0 0 0.25 0"/>
<feBlend mode="normal" in2="effect1_innerShadow_6_13" result="effect2_innerShadow_6_13"/>
</filter>
</defs>
</svg>
