<?xml version="1.0" encoding="utf-8"?>
<!-- Generator: Adobe Illustrator 19.0.0, SVG Export Plug-In . SVG Version: 6.00 Build 0)  -->
<svg version="1.1" id="Layer_1" xmlns="http://www.w3.org/2000/svg" xmlns:xlink="http://www.w3.org/1999/xlink" x="0px" y="0px"
	 width="197.3px" height="154.3px" viewBox="0 0 197.3 154.3" style="enable-background:new 0 0 197.3 154.3;" xml:space="preserve"
	>
<style type="text/css">
	.st0{fill:url(#XMLID_69_);}
	.st1{fill:url(#XMLID_70_);}
	.st2{fill:url(#XMLID_71_);}
</style>
<g id="XMLID_105_">
	<g id="XMLID_107_">
		<linearGradient id="XMLID_69_" gradientUnits="userSpaceOnUse" x1="154.007" y1="126.4388" x2="47.1593" y2="19.5911">
			<stop  offset="0" style="stop-color:#346EB6"/>
			<stop  offset="0.4795" style="stop-color:#437EBF"/>
			<stop  offset="1" style="stop-color:#5594CC"/>
		</linearGradient>
		<path id="XMLID_11_" class="st0" d="M189,54.9c1.2,0.7,1.8,1.9,1.5,3.2c-3.3,13.9-24.4,90.2-89.7,90.2
			c-65.4,0-86.8-76.5-90.1-90.3c-0.3-1.3,0.3-2.5,1.4-3.2L98.5,6.4c1.4-0.8,3.1-0.8,4.6,0L189,54.9z"/>
	</g>
	<g id="XMLID_96_">
		<linearGradient id="XMLID_70_" gradientUnits="userSpaceOnUse" x1="94.3832" y1="125.3276" x2="139.7132" y2="46.8138">
			<stop  offset="0" style="stop-color:#FFFFFF"/>
			<stop  offset="1" style="stop-color:#E5EFFA"/>
		</linearGradient>
		<path id="XMLID_100_" class="st1" d="M161.4,59.6l-11.7-6.4l-2.8-1.6l-18.3-10l-5.6-3l-16.3-8.9c-0.8-0.4-1.8,0.1-1.8,1.1l0.2,100
			c0,0.8,0.8,1.4,1.6,1.1c5.7-2,11.1-4.5,16.2-7.4c1.9-1.1,3.8-2.2,5.6-3.4c6.7-4.4,12.8-9.6,18.3-15.4c1-1.1,2-2.1,2.9-3.2
			c4.5-5.3,8.5-11,11.9-17.2c0.4-0.8,0.9-1.6,1.3-2.5c2.5-4.9,4.6-10,6.3-15.3c0.2-0.8,0.5-1.5,0.7-2.3c0.2-0.5-0.1-1.1-0.6-1.4
			L161.4,59.6z M123,97.5V63c0-0.9,1-1.5,1.8-1.1l10.3,5.6l11.2,6.1c0.6,0.3,0.8,1.1,0.5,1.6c-5.1,9.3-12.4,17-21.9,23.1
			C124,99.1,123,98.5,123,97.5z"/>
		<linearGradient id="XMLID_71_" gradientUnits="userSpaceOnUse" x1="56.0157" y1="111.6308" x2="101.4415" y2="32.9508">
			<stop  offset="0" style="stop-color:#FFFFFF"/>
			<stop  offset="1" style="stop-color:#E5EFFA"/>
		</linearGradient>
		<path id="XMLID_99_" class="st2" d="M96.6,30.8l-0.1,100c0,0.8-0.8,1.4-1.6,1.1c-7.6-2.6-14.8-6.1-21.4-10.4
			c-0.3-0.2-0.6-0.6-0.6-1V89.8c0-0.6-0.4-1.1-1-1.2c-5.3-1-10.6-1.9-15.9-2.9c-0.7-0.1-1.4,0.4-1.4,1.2l0,16c0,1.1-1.4,1.6-2.1,0.8
			C46.9,97.3,42,90.1,38.1,82.4c-1.4-2.7-2.7-5.5-3.8-8.4c-0.8-2.1-1.6-4.2-2.3-6.4c-0.2-0.7-0.4-1.4-0.7-2.1
			c-0.2-0.5,0.1-1.1,0.6-1.4l21-11.4c0.8-0.4,1.8,0.1,1.8,1.1l0,15.2c0,0.8,0.7,1.3,1.4,1.2c4.4-0.8,8.9-1.6,13.5-2.4
			c0.8-0.1,1.6-0.3,2.4-0.4c0.6-0.1,1-0.6,1-1.2l0-23.6c0-0.4,0.2-0.8,0.6-1.1l3.5-1.9l17.7-9.7C95.6,29.3,96.6,29.9,96.6,30.8z"/>
	</g>
</g>
</svg>
